# xmcd CD database file
# Copyright (C) 1993-1998 Ti Kan
#
# Track frame offsets:
#	150
#	34473
#	43393
#	62514
#	89412
#	117992
#	133835
#	144430
#	176073
#	190801
#	202977
#	220860
#	234653
#
# Disc length: 3461 seconds
#
# Revision: 2
# Processed by: cddbd v1.4b41PL1 Copyright (c) Steve Scherf et al.
# Submitted via: CDValet v3.31 - Copyright (c) 1997 Greg Leichner
#
DISCID=c70d830d
DTITLE=Various Artist - X-Mix Issue 32 1996
DYEAR=1900
DGENRE=
TTITLE0=The Progressive House of X
TTITLE1=n/a
TTITLE2=n/a
TTITLE3=Sweet Dreams
TTITLE4=To The Top
TTITLE5=Feels So Good
TTITLE6=n/a
TTITLE7=C'Mon 'N Ride It (The Train)
TTITLE8=Energy
TTITLE9=n/a
TTITLE10=Me And You
TTITLE11=n/a
TTITLE12=Got Myself Together
EXTD=
EXTT0=
EXTT1=
EXTT2=
EXTT3=
EXTT4=
EXTT5=
EXTT6=
EXTT7=
EXTT8=
EXTT9=
EXTT10=
EXTT11=
EXTT12=
PLAYORDER=
